<?xml version="1.0" encoding="UTF-8" standalone="no"?>
<!-- Generator: Adobe Illustrator 18.1.1, SVG Export Plug-In . SVG Version: 6.00 Build 0)  -->

<svg
   xmlns:dc="http://purl.org/dc/elements/1.1/"
   xmlns:cc="http://creativecommons.org/ns#"
   xmlns:rdf="http://www.w3.org/1999/02/22-rdf-syntax-ns#"
   xmlns:svg="http://www.w3.org/2000/svg"
   xmlns="http://www.w3.org/2000/svg"
   xmlns:sodipodi="http://sodipodi.sourceforge.net/DTD/sodipodi-0.dtd"
   xmlns:inkscape="http://www.inkscape.org/namespaces/inkscape"
   version="1.1"
   id="Layer_1"
   x="0px"
   y="0px"
   viewBox="0 0 280 280"
   enable-background="new 0 0 600 600"
   xml:space="preserve"
   inkscape:version="0.91 r13725"
   sodipodi:docname="expand-mobile.svg"
   width="280"
   height="280"><metadata
     id="metadata21"><rdf:RDF><cc:Work
         rdf:about=""><dc:format>image/svg+xml</dc:format><dc:type
           rdf:resource="http://purl.org/dc/dcmitype/StillImage" /><dc:title></dc:title></cc:Work></rdf:RDF></metadata><defs
     id="defs19" /><sodipodi:namedview
     pagecolor="#ffffff"
     bordercolor="#666666"
     borderopacity="1"
     objecttolerance="10"
     gridtolerance="10"
     guidetolerance="10"
     inkscape:pageopacity="0"
     inkscape:pageshadow="2"
     inkscape:window-width="1280"
     inkscape:window-height="660"
     id="namedview17"
     showgrid="false"
     fit-margin-top="0"
     fit-margin-left="0"
     fit-margin-right="0"
     fit-margin-bottom="0"
     inkscape:zoom="0.39333333"
     inkscape:cx="140"
     inkscape:cy="140"
     inkscape:window-x="-8"
     inkscape:window-y="-8"
     inkscape:window-maximized="1"
     inkscape:current-layer="Layer_1" /><g
     id="g3"
     transform="translate(-160,-160)"><g
       id="g5"><path
         d="m 300,440 c -77.2,0 -140,-62.8 -140,-140 0,-77.2 62.8,-140 140,-140 77.2,0 140,62.8 140,140 0,77.2 -62.8,140 -140,140 z m 0,-266 c -69.5,0 -126,56.5 -126,126 0,69.5 56.5,126 126,126 69.5,0 126,-56.5 126,-126 0,-69.5 -56.5,-126 -126,-126 z"
         id="path7"
         inkscape:connector-curvature="0"
         style="fill:#808080" /></g><g
       id="g9"><rect
         x="293"
         y="246.3"
         width="14"
         height="107.3"
         id="rect11"
         style="fill:#808080" /></g><g
       id="g13"><rect
         x="246.3"
         y="293"
         width="107.3"
         height="14"
         id="rect15"
         style="fill:#808080" /></g></g></svg>